<svg width="170" height="135" viewBox="0 0 170 135" fill="none" xmlns="http://www.w3.org/2000/svg">
<g clip-path="url(#clip0_241_7466)">
<path d="M101.232 54.7155C92.8888 54.7155 84.4063 54.4076 76.4627 52.3358C68.519 50.264 61.5534 46.3911 55.1366 41.8556C50.9652 38.8972 47.153 36.5548 41.7441 36.9094C36.4423 37.171 31.3716 39.0232 27.2839 42.1915C20.3881 47.7909 21.436 58.2712 24.1903 65.6157C28.3318 76.6745 40.9158 84.3551 51.6637 89.3665C64.0482 95.1526 77.6103 98.5122 91.2921 100.444C103.267 102.143 118.606 103.374 128.965 96.0765C138.485 89.3665 141.1 74.0522 138.764 63.7026C138.184 60.6626 136.443 57.9233 133.864 55.9941C127.188 51.4306 117.209 54.4822 109.704 54.6315C106.91 54.6409 104.076 54.7062 101.232 54.7155Z" fill="#F2F2F2"/>
<path d="M124.374 27.2691H38.0816C35.6125 27.2691 33.6108 29.141 33.6108 31.45V89.1705C33.6108 91.4796 35.6125 93.3514 38.0816 93.3514H124.374C126.843 93.3514 128.845 91.4796 128.845 89.1705V31.45C128.845 29.141 126.843 27.2691 124.374 27.2691Z" fill="white" stroke="#BABABA" stroke-linecap="round" stroke-linejoin="round"/>
<path d="M37.1533 87.2014H122.348" stroke="#F2F2F2" stroke-linecap="round" stroke-linejoin="round"/>
<path d="M37.1533 76.7492H122.348" stroke="#F2F2F2" stroke-linecap="round" stroke-linejoin="round"/>
<path d="M37.1533 66.3063H122.348" stroke="#F2F2F2" stroke-linecap="round" stroke-linejoin="round"/>
<path d="M37.1533 55.8541H122.348" stroke="#F2F2F2" stroke-linecap="round" stroke-linejoin="round"/>
<path d="M37.1533 45.4019H122.348" stroke="#F2F2F2" stroke-linecap="round" stroke-linejoin="round"/>
<path d="M37.1533 34.9496H122.348" stroke="#F2F2F2" stroke-linecap="round" stroke-linejoin="round"/>
<path d="M53.829 41.7529H48.2206C46.8647 41.7529 45.7656 42.7808 45.7656 44.0487V85.4656C45.7656 86.7335 46.8647 87.7614 48.2206 87.7614H53.829C55.1849 87.7614 56.284 86.7335 56.284 85.4656V44.0487C56.284 42.7808 55.1849 41.7529 53.829 41.7529Z" fill="#D2D2D2"/>
<path d="M73.9677 59.699H68.3592C67.0034 59.699 65.9043 60.7268 65.9043 61.9947V85.4656C65.9043 86.7335 67.0034 87.7613 68.3592 87.7613H73.9677C75.3235 87.7613 76.4226 86.7335 76.4226 85.4656V61.9947C76.4226 60.7268 75.3235 59.699 73.9677 59.699Z" fill="#D2D2D2"/>
<path d="M94.0961 46.5684H88.4877C87.1318 46.5684 86.0327 47.5962 86.0327 48.8641V85.4562C86.0327 86.7241 87.1318 87.752 88.4877 87.752H94.0961C95.4519 87.752 96.5511 86.7241 96.5511 85.4562V48.8641C96.5511 47.5962 95.4519 46.5684 94.0961 46.5684Z" fill="#D2D2D2"/>
<path d="M114.225 66.1196H108.617C107.261 66.1196 106.162 67.1475 106.162 68.4154V85.4562C106.162 86.7242 107.261 87.752 108.617 87.752H114.225C115.581 87.752 116.68 86.7242 116.68 85.4562V68.4154C116.68 67.1475 115.581 66.1196 114.225 66.1196Z" fill="#D2D2D2"/>
<path d="M46.2646 62.4334L52.1126 62.2187L68.4889 77.9624L84.1566 64.6171L101.231 69.8713L117.708 60.035" stroke="#BABABA" stroke-width="1.1" stroke-linecap="round" stroke-linejoin="round"/>
<path d="M57.2622 98.6429V102.656" stroke="#BABABA" stroke-linecap="round" stroke-linejoin="round"/>
<path d="M55.1167 100.649H59.4079" stroke="#BABABA" stroke-linecap="round" stroke-linejoin="round"/>
<path d="M134.014 45.8311V49.844" stroke="#BABABA" stroke-linecap="round" stroke-linejoin="round"/>
<path d="M131.869 47.8376H136.16" stroke="#BABABA" stroke-linecap="round" stroke-linejoin="round"/>
<path d="M26.3257 26.3918V30.3954" stroke="#BABABA" stroke-linecap="round" stroke-linejoin="round"/>
<path d="M24.1802 28.3983H28.4713" stroke="#BABABA" stroke-linecap="round" stroke-linejoin="round"/>
<path d="M28.1323 81.1261C28.6724 81.1261 29.1103 80.7166 29.1103 80.2115C29.1103 79.7064 28.6724 79.2969 28.1323 79.2969C27.5922 79.2969 27.1543 79.7064 27.1543 80.2115C27.1543 80.7166 27.5922 81.1261 28.1323 81.1261Z" fill="#CFCFCF"/>
<path d="M74.9555 17.8994C75.4957 17.8994 75.9335 17.49 75.9335 16.9849C75.9335 16.4798 75.4957 16.0703 74.9555 16.0703C74.4154 16.0703 73.9775 16.4798 73.9775 16.9849C73.9775 17.49 74.4154 17.8994 74.9555 17.8994Z" fill="#CFCFCF"/>
<path d="M85.0049 118.558C105.205 118.558 121.58 117.605 121.58 116.43C121.58 115.255 105.205 114.303 85.0049 114.303C64.8052 114.303 48.4302 115.255 48.4302 116.43C48.4302 117.605 64.8052 118.558 85.0049 118.558Z" fill="#F2F2F2"/>
<path d="M125.302 39.0932C131.701 39.0932 136.888 34.2423 136.888 28.2583C136.888 22.2744 131.701 17.4235 125.302 17.4235C118.903 17.4235 113.716 22.2744 113.716 28.2583C113.716 34.2423 118.903 39.0932 125.302 39.0932Z" fill="#D2D2D2"/>
<path d="M120.262 23.5455L130.331 32.9712" stroke="white" stroke-width="1.1" stroke-linecap="round" stroke-linejoin="round"/>
<path d="M130.331 23.5455L120.262 32.9712" stroke="white" stroke-width="1.1" stroke-linecap="round" stroke-linejoin="round"/>
</g>
<defs>
<clipPath id="clip0_241_7466">
<rect width="170" height="135" fill="white"/>
</clipPath>
</defs>
</svg>
